# Blender v2.78 (sub 0) OBJ File: '21.blend'
# www.blender.org
mtllib Blackboard_Eraser_01.mtl
g Blackboard_Eraser_01_Cube.030
v -4.924863 -1.873251 1.846895
v -4.900984 0.547482 1.777167
v -4.924863 -1.873251 -1.846895
v -4.900984 0.547482 -1.777167
v 4.924863 -1.873251 1.846895
v 4.900984 0.547482 1.777167
v 4.924863 -1.873251 -1.846895
v 4.900984 0.547482 -1.777167
v -4.995141 -1.026065 1.873251
v -4.995141 -1.026065 -1.873251
v 4.995141 -1.026065 -1.873251
v 4.995141 -1.026065 1.873251
v -4.900984 0.547482 1.066300
v -4.900984 0.547482 0.355433
v -4.900984 0.547482 -0.355433
v -4.900984 0.547482 -1.066300
v 4.900984 0.547482 -1.066300
v 4.900984 0.547482 -0.355433
v 4.900984 0.547482 0.355433
v 4.900984 0.547482 1.066300
v 4.995141 -1.026065 -1.123950
v 4.995141 -1.026065 -0.374650
v 4.995141 -1.026065 0.374650
v 4.995141 -1.026065 1.123950
v -4.995141 -1.026065 1.123950
v -4.995141 -1.026065 0.374650
v -4.995141 -1.026065 -0.374650
v -4.995141 -1.026065 -1.123950
v -4.924863 -1.873251 -1.173431
v -4.924863 -1.873251 -1.042843
v -4.930260 -1.808191 -1.109352
v -4.924863 -1.873251 -0.434673
v -4.924863 -1.873251 -0.304085
v -4.930261 -1.808182 -0.369784
v -4.924863 -1.873251 0.304085
v -4.924863 -1.873251 0.434673
v -4.930261 -1.808182 0.369784
v -4.924863 -1.873251 1.042843
v -4.924863 -1.873251 1.173431
v -4.930260 -1.808191 1.109352
v 4.924863 -1.873251 1.173431
v 4.924863 -1.873251 1.042843
v 4.930260 -1.808191 1.109352
v 4.924863 -1.873251 0.434673
v 4.924863 -1.873251 0.304085
v 4.930261 -1.808182 0.369784
v 4.924863 -1.873251 -0.304085
v 4.924863 -1.873251 -0.434673
v 4.930261 -1.808182 -0.369784
v 4.924863 -1.873251 -1.042843
v 4.924863 -1.873251 -1.173431
v 4.930260 -1.808191 -1.109352
v -4.659368 0.547482 -0.929779
v -4.659368 0.547482 -1.549632
v 4.659368 0.547482 -1.549632
v 4.659368 0.547482 0.929779
v 4.659368 0.547482 1.549632
v -4.659368 0.547482 1.549632
v -4.659368 0.547482 0.929779
v -4.659368 0.547482 0.309926
v -4.659368 0.547482 -0.309926
v 4.659368 0.547482 -0.929779
v 4.659368 0.547482 -0.309926
v 4.659368 0.547482 0.309926
v -4.580891 0.547482 -0.895452
v -4.580891 0.547482 -1.492419
v 4.580891 0.547482 -1.492419
v 4.580891 0.547482 0.895452
v 4.580891 0.547482 1.492419
v -4.580891 0.547482 1.492419
v -4.580891 0.547482 0.895451
v -4.580891 0.547482 0.298484
v -4.580891 0.547482 -0.298484
v 4.580891 0.547482 -0.895451
v 4.580891 0.547482 -0.298484
v 4.580891 0.547482 0.298484
v -4.659368 0.603424 -0.929779
v -4.659368 0.603424 -1.549632
v 4.659368 0.603424 -1.549632
v 4.659368 0.603424 0.929779
v 4.659368 0.603424 1.549632
v -4.659368 0.603424 1.549632
v -4.659368 0.603424 0.929779
v -4.659368 0.603424 0.309926
v -4.659368 0.603424 -0.309926
v 4.659368 0.603424 -0.929779
v 4.659368 0.603424 -0.309926
v 4.659368 0.603424 0.309926
v 4.580891 0.603424 0.895452
v 4.580891 0.603424 0.298484
v -4.580891 0.603424 0.895451
v -4.580891 0.603424 1.492419
v -4.580891 0.603424 -0.895452
v -4.580891 0.603424 -1.492419
v 4.580891 0.603424 -1.492419
v 4.580891 0.603424 1.492419
v -4.580891 0.603424 0.298484
v -4.580891 0.603424 -0.298484
v 4.580891 0.603424 -0.895451
v 4.580891 0.603424 -0.298484
vn -0.9982 0.0597 0.0000
vn 0.0000 0.0609 -0.9981
vn 0.9982 0.0597 0.0000
vn 0.0000 0.0609 0.9981
vn 0.0000 1.0000 0.0000
vn -1.0000 0.0000 0.0000
vn 0.0000 0.0000 1.0000
vn 1.0000 0.0000 0.0000
vn 0.0000 0.0000 -1.0000
vn 0.9966 -0.0827 0.0000
vn 0.0000 -0.0311 0.9995
vn 0.0000 -0.0311 -0.9995
vn 0.0000 -1.0000 0.0000
vn -0.9966 -0.0827 0.0000
vn 0.0000 -0.7017 0.7125
vn 0.0000 -0.7149 -0.6993
vn 0.0000 -0.7061 0.7081
vn -0.0000 -0.7105 -0.7037
vn 0.0000 -0.7105 0.7037
vn -0.0000 -0.7061 -0.7081
vn 0.0000 -0.7149 0.6993
vn 0.0000 -0.7017 -0.7125
usemtl 1A1A1A
s off
f 28//1 16//1 4//1 10//1
f 10//2 4//2 8//2 11//2
f 24//3 20//3 6//3 12//3
f 12//4 6//4 2//4 9//4
f 20//5 19//5 64//5 56//5
f 13//5 2//5 58//5 59//5
f 4//5 16//5 53//5 54//5
f 16//5 15//5 61//5 53//5
f 8//5 4//5 54//5 55//5
f 11//3 8//3 17//3 21//3
f 21//3 17//3 18//3 22//3
f 22//3 18//3 19//3 23//3
f 23//3 19//3 20//3 24//3
f 9//1 2//1 13//1 25//1
f 25//1 13//1 14//1 26//1
f 26//1 14//1 15//1 27//1
f 27//1 15//1 16//1 28//1
f 74//6 75//6 100//6 99//6
f 58//7 57//7 81//7 82//7
f 66//7 67//7 95//7 94//7
f 64//8 63//8 87//8 88//8
f 67//6 74//6 99//6 95//6
f 17//5 8//5 55//5 62//5
f 14//5 13//5 59//5 60//5
f 2//5 6//5 57//5 58//5
f 18//5 17//5 62//5 63//5
f 6//5 20//5 56//5 57//5
f 15//5 14//5 60//5 61//5
f 19//5 18//5 63//5 64//5
f 68//5 71//5 70//5 69//5
f 67//5 66//5 65//5 74//5
f 74//5 65//5 73//5 75//5
f 75//5 73//5 72//5 76//5
f 76//5 72//5 71//5 68//5
f 57//8 56//8 80//8 81//8
f 65//8 66//8 94//8 93//8
f 63//8 62//8 86//8 87//8
f 73//8 65//8 93//8 98//8
f 55//9 54//9 78//9 79//9
f 62//8 55//8 79//8 86//8
f 72//8 73//8 98//8 97//8
f 84//5 83//5 91//5 97//5
f 86//5 79//5 95//5 99//5
f 79//5 78//5 94//5 95//5
f 80//5 88//5 90//5 89//5
f 83//5 82//5 92//5 91//5
f 81//5 80//5 89//5 96//5
f 87//5 86//5 99//5 100//5
f 85//5 84//5 97//5 98//5
f 82//5 81//5 96//5 92//5
f 88//5 87//5 100//5 90//5
f 78//5 77//5 93//5 94//5
f 77//5 85//5 98//5 93//5
f 56//8 64//8 88//8 80//8
f 68//6 69//6 96//6 89//6
f 59//6 58//6 82//6 83//6
f 75//6 76//6 90//6 100//6
f 69//9 70//9 92//9 96//9
f 60//6 59//6 83//6 84//6
f 76//6 68//6 89//6 90//6
f 70//8 71//8 91//8 92//8
f 61//6 60//6 84//6 85//6
f 71//8 72//8 97//8 91//8
f 53//6 61//6 85//6 77//6
f 54//6 53//6 77//6 78//6
usemtl 455A64
f 44//10 46//10 23//10 24//10 43//10 42//10
f 5//11 12//11 9//11 1//11
f 47//10 49//10 22//10 23//10 46//10 45//10
f 3//12 10//12 11//12 7//12
f 30//13 50//13 48//13 32//13
f 39//13 41//13 5//13 1//13
f 36//13 44//13 42//13 38//13
f 33//13 47//13 45//13 35//13
f 29//14 31//14 28//14 10//14 3//14
f 7//10 11//10 21//10 52//10 51//10
f 50//10 52//10 21//10 22//10 49//10 48//10
f 41//10 43//10 24//10 12//10 5//10
f 32//14 34//14 27//14 28//14 31//14 30//14
f 35//14 37//14 26//14 27//14 34//14 33//14
f 38//14 40//14 25//14 26//14 37//14 36//14
f 1//14 9//14 25//14 40//14 39//14
f 31//15 29//15 51//15 52//15
f 30//16 31//16 52//16 50//16
f 34//17 32//17 48//17 49//17
f 33//18 34//18 49//18 47//18
f 37//19 35//19 45//19 46//19
f 36//20 37//20 46//20 44//20
f 40//21 38//21 42//21 43//21
f 39//22 40//22 43//22 41//22
f 3//13 7//13 51//13 29//13
